<svg width="38" height="44" viewBox="0 0 38 44" fill="none" xmlns="http://www.w3.org/2000/svg">
<path d="M14.8333 4.25004H23.1666C24.3124 4.25004 25.2499 3.31254 25.2499 2.16671C25.2499 1.02087 24.3124 0.083374 23.1666 0.083374H14.8333C13.6874 0.083374 12.7499 1.02087 12.7499 2.16671C12.7499 3.31254 13.6874 4.25004 14.8333 4.25004ZM33.6458 13.3959L35.2083 11.8334C35.5935 11.4458 35.8097 10.9215 35.8097 10.375C35.8097 9.82857 35.5935 9.3043 35.2083 8.91671L35.1874 8.89588C34.7999 8.51065 34.2756 8.29443 33.7291 8.29443C33.1826 8.29443 32.6584 8.51065 32.2708 8.89588L30.7083 10.4584C27.3902 7.78822 23.259 6.33273 18.9999 6.33337C8.99994 6.33337 0.499946 14.5834 0.249946 24.5834C0.182571 27.0876 0.617799 29.5799 1.52992 31.913C2.44203 34.2461 3.81253 36.3728 5.56044 38.1673C7.30835 39.9618 9.39821 41.3878 11.7065 42.361C14.0149 43.3342 16.4949 43.8348 18.9999 43.8334C22.5298 43.8353 25.9883 42.8401 28.9773 40.9625C31.9663 39.0848 34.3641 36.4011 35.8946 33.2203C37.4251 30.0396 38.026 26.4912 37.6282 22.9839C37.2303 19.4766 35.8498 16.153 33.6458 13.3959ZM21.0833 25.0834C21.0833 26.2292 20.1458 27.1667 18.9999 27.1667C17.8541 27.1667 16.9166 26.2292 16.9166 25.0834V16.75C16.9166 15.6042 17.8541 14.6667 18.9999 14.6667C20.1458 14.6667 21.0833 15.6042 21.0833 16.75V25.0834Z" fill="#F3ECFF"/>
</svg>
